<?xml version="1.0" encoding="UTF-8"?>
<svg id="Layer_2" data-name="Layer 2" xmlns="http://www.w3.org/2000/svg" viewBox="0 0 145.64 85.06">
  <g id="Layer_1-2" data-name="Layer 1">
    <g>
      <path d="m88.72,31.47l-3.83,3.21,5.9,7.03-13.79,37.89c1.65.41,3.21,1.04,4.64,1.88l12.87-35.35,4.05,4.82,3.83-3.21-5.9-7.03,10.4-28.56,11.42,4.16,1.71-4.7L92.46,1.59l-1.71,4.7,11.42,4.16-9.41,25.85-4.05-4.82Z"/>
      <path d="m39.28,12.16l9.41,25.85-6.2-1.09-.87,4.92,9.04,1.59,13.76,37.81c1.45-.79,3.02-1.39,4.69-1.74l-12.76-35.06,6.2,1.09.87-4.92-9.04-1.59-10.4-28.56,11.42-4.16-1.71-4.7-27.54,10.02,1.71,4.7,11.42-4.16Z"/>
      <path d="m70.57,32.51l-5.45-3.15-2.5,4.33,7.95,4.59v40.97c.74-.09,1.48-.16,2.25-.16.94,0,1.85.09,2.75.24v-38.16l5.45,3.15,2.5-4.33-7.95-4.59V5h12.15V0h-29.31v5h12.15v27.51Z"/>
      <path d="m123.19,14.01l-3.21,3.83,9.31,7.81-17.68,21.07-2.15-5.92-4.7,1.71,3.14,8.63-25.73,30.67c1.42.9,2.7,1.99,3.8,3.25l23.91-28.49,2.15,5.91,4.7-1.71-3.14-8.63,19.54-23.28,9.31,7.81,3.21-3.83-22.45-18.84Z"/>
      <path d="m63.48,81.81l-23.88-28.46,6.2-1.09-.87-4.92-9.04,1.59-19.54-23.28,9.31-7.81-3.21-3.83L0,32.84l3.21,3.83,9.31-7.81,17.68,21.07-6.2,1.09.87,4.92,9.04-1.59,25.76,30.7c1.1-1.26,2.38-2.35,3.8-3.25Z"/>
    </g>
  </g>
</svg>