<?xml version="1.0" encoding="UTF-8"?>
<svg id="Layer_2" data-name="Layer 2" xmlns="http://www.w3.org/2000/svg" viewBox="0 0 64.83 69.59">
  <defs>
    <style>
      .cls-1 {
        fill: none;
      }
    </style>
  </defs>
  <g id="Layer_1-2" data-name="Layer 1">
    <g>
      <path class="cls-1" d="m22.38,43.86c-.04-1.34-.17-2.67-.36-3.99-.3-2.09-.74-4.14-1.41-6.11-.84-2.49-1.94-4.79-3.58-6.67-.69-.79-1.45-1.44-2.32-1.9-.96-.51-1.96-.72-3.01-.59-1.04.12-1.98.57-2.85,1.24-1.09.83-1.97,1.92-2.73,3.16-1.23,2-2.09,4.23-2.72,6.58-.63,2.36-1,4.79-1.17,7.26-.11,1.55-.11,3.09-.06,4.64.05,1.51.19,3,.4,4.48.24,1.69.59,3.35,1.08,4.96.62,2.07,1.41,4.02,2.52,5.78.97,1.54,2.1,2.86,3.59,3.68,1.07.59,2.18.82,3.35.61,1.24-.21,2.31-.87,3.29-1.78,1.07-1.01,1.91-2.25,2.64-3.62.92-1.71,1.59-3.56,2.11-5.49.5-1.85.84-3.74,1.04-5.66.15-1.45.25-2.9.2-4.36,0-.74.02-1.49,0-2.23Z"/>
      <path class="cls-1" d="m12.97,16.39c1.01,1.07,2.25,1.91,3.62,2.64,1.71.92,3.56,1.59,5.49,2.11,1.85.5,3.74.84,5.66,1.04,1.45.15,2.9.25,4.36.2.74,0,1.49.02,2.23,0,1.34-.04,2.67-.17,3.99-.36,2.09-.3,4.14-.74,6.11-1.41,2.49-.84,4.79-1.94,6.67-3.58.79-.69,1.44-1.45,1.9-2.32.51-.96.72-1.96.59-3.01-.12-1.04-.57-1.98-1.24-2.85-.83-1.09-1.92-1.97-3.16-2.73-2-1.23-4.23-2.09-6.58-2.72-2.36-.63-4.79-1-7.26-1.17-1.55-.11-3.09-.11-4.64-.06-1.51.05-3,.19-4.48.4-1.69.24-3.35.59-4.96,1.08-2.07.62-4.02,1.41-5.78,2.52-1.54.97-2.86,2.1-3.68,3.59-.59,1.07-.82,2.18-.61,3.35.21,1.24.87,2.31,1.78,3.29Z"/>
      <path class="cls-1" d="m62.65,43.9c-.04-1.34-.17-2.67-.36-3.99-.3-2.09-.74-4.14-1.41-6.11-.84-2.49-1.94-4.79-3.58-6.67-.69-.79-1.45-1.44-2.32-1.9-.96-.51-1.96-.72-3.01-.59-1.04.12-1.98.57-2.85,1.24-1.09.83-1.97,1.92-2.73,3.16-1.23,2-2.09,4.23-2.72,6.58-.63,2.36-1,4.79-1.17,7.26-.11,1.55-.11,3.09-.06,4.64.05,1.51.19,3,.4,4.48.24,1.69.59,3.35,1.08,4.96.62,2.07,1.41,4.02,2.52,5.78.97,1.54,2.1,2.86,3.59,3.68,1.07.59,2.18.82,3.35.61,1.24-.21,2.31-.87,3.29-1.78,1.07-1.01,1.91-2.25,2.64-3.62.92-1.71,1.59-3.56,2.11-5.49.5-1.85.84-3.74,1.04-5.66.15-1.45.25-2.9.2-4.36,0-.74.02-1.49,0-2.23Z"/>
      <path d="m24.2,40.1c-.18-1.46-.44-2.91-.78-4.33-.56-2.36-1.32-4.61-2.39-6.71-.72-1.42-1.56-2.74-2.58-3.88-.83-.93-1.75-1.71-2.78-2.28-1.71-.93-3.47-1.16-5.3-.62-1.63.48-3.01,1.5-4.23,2.86-1.45,1.62-2.55,3.56-3.43,5.68-.82,1.98-1.42,4.06-1.86,6.21-.32,1.57-.55,3.16-.67,4.78-.08,1.08-.15,2.16-.18,3.24-.04,1.43.03,2.86.13,4.29.15,2,.43,3.97.85,5.91.63,2.85,1.54,5.56,2.9,8.03.89,1.62,1.94,3.07,3.26,4.22,1.37,1.18,2.85,2.03,4.58,2.05.57,0,1.15.03,1.72-.04.92-.12,1.78-.5,2.6-1.01,1.61-1.01,2.9-2.47,3.99-4.2,1.25-1.98,2.16-4.19,2.86-6.52.53-1.79.93-3.63,1.18-5.51.13-1.03.26-2.06.34-3.1.08-1.1.09-2.21.13-3.32-.01,0-.03,0-.04,0,.05-1.92-.09-3.83-.32-5.73Zm-2.01,10.35c-.2,1.92-.54,3.82-1.04,5.66-.52,1.93-1.19,3.78-2.11,5.49-.73,1.36-1.57,2.61-2.64,3.62-.97.92-2.05,1.57-3.29,1.78-1.17.2-2.28-.03-3.35-.61-1.49-.82-2.62-2.14-3.59-3.68-1.1-1.76-1.9-3.71-2.52-5.78-.48-1.61-.83-3.27-1.08-4.96-.22-1.48-.35-2.98-.4-4.48-.05-1.55-.04-3.1.06-4.64.17-2.47.54-4.9,1.17-7.26.63-2.36,1.49-4.58,2.72-6.58.76-1.24,1.64-2.33,2.73-3.16.87-.67,1.81-1.11,2.85-1.24,1.05-.13,2.05.09,3.01.59.87.46,1.63,1.11,2.32,1.9,1.64,1.88,2.74,4.18,3.58,6.67.67,1.97,1.11,4.02,1.41,6.11.19,1.32.32,2.65.36,3.99.02.74,0,1.49,0,2.23.05,1.46-.04,2.91-.2,4.36Z"/>
      <path d="m64.79,45.87c.05-1.92-.09-3.83-.32-5.73-.18-1.46-.44-2.91-.78-4.33-.56-2.36-1.32-4.61-2.39-6.71-.72-1.42-1.56-2.74-2.58-3.88-.83-.93-1.75-1.71-2.78-2.28-1.71-.93-3.47-1.16-5.3-.62-1.63.48-3.01,1.5-4.23,2.86-1.45,1.62-2.55,3.56-3.43,5.68-.82,1.98-1.42,4.06-1.86,6.21-.32,1.57-.55,3.16-.67,4.78-.08,1.08-.15,2.16-.18,3.24-.04,1.43.03,2.86.13,4.29.15,2,.43,3.97.85,5.91.63,2.85,1.54,5.56,2.9,8.03.89,1.62,1.94,3.07,3.26,4.22,1.37,1.18,2.85,2.03,4.58,2.05.57,0,1.15.03,1.72-.04.92-.12,1.78-.5,2.6-1.01,1.61-1.01,2.9-2.47,3.99-4.2,1.25-1.98,2.16-4.19,2.86-6.52.53-1.79.93-3.63,1.18-5.51.13-1.03.26-2.06.34-3.1.08-1.1.09-2.21.13-3.32-.01,0-.03,0-.04,0Zm-2.33,4.62c-.2,1.92-.54,3.82-1.04,5.66-.52,1.93-1.19,3.78-2.11,5.49-.73,1.36-1.57,2.61-2.64,3.62-.97.92-2.05,1.57-3.29,1.78-1.17.2-2.28-.03-3.35-.61-1.49-.82-2.62-2.14-3.59-3.68-1.1-1.76-1.9-3.71-2.52-5.78-.48-1.61-.83-3.27-1.08-4.96-.22-1.48-.35-2.98-.4-4.48-.05-1.55-.04-3.1.06-4.64.17-2.47.54-4.9,1.17-7.26.63-2.36,1.49-4.58,2.72-6.58.76-1.24,1.64-2.33,2.73-3.16.87-.67,1.81-1.11,2.85-1.24,1.05-.13,2.05.09,3.01.59.87.46,1.63,1.11,2.32,1.9,1.64,1.88,2.74,4.18,3.58,6.67.67,1.97,1.11,4.02,1.41,6.11.19,1.32.32,2.65.36,3.99.02.74,0,1.49,0,2.23.05,1.46-.04,2.91-.2,4.36Z"/>
      <path d="m9.7,16.07c1.01,1.61,2.47,2.9,4.2,3.99,1.98,1.25,4.19,2.16,6.52,2.86,1.79.53,3.63.93,5.51,1.18,1.03.13,2.06.26,3.1.34,1.1.08,2.21.09,3.32.13,0-.01,0-.03,0-.04,1.92.05,3.83-.09,5.73-.32,1.46-.18,2.91-.44,4.33-.78,2.36-.56,4.61-1.32,6.71-2.39,1.42-.72,2.74-1.56,3.88-2.58.93-.83,1.71-1.75,2.28-2.78.93-1.71,1.16-3.47.62-5.3-.48-1.63-1.5-3.01-2.86-4.23-1.62-1.45-3.56-2.55-5.68-3.43-1.98-.82-4.06-1.42-6.21-1.86-1.57-.32-3.16-.55-4.78-.67-1.08-.08-2.16-.15-3.24-.18-1.43-.04-2.86.03-4.29.13-2,.15-3.97.43-5.91.85-2.85.63-5.56,1.54-8.03,2.9-1.62.89-3.07,1.94-4.22,3.26-1.18,1.37-2.03,2.85-2.05,4.58,0,.57-.03,1.15.04,1.72.12.92.5,1.78,1.01,2.6Zm2.1-6.31c.82-1.49,2.14-2.62,3.68-3.59,1.76-1.1,3.71-1.9,5.78-2.52,1.61-.48,3.27-.83,4.96-1.08,1.48-.22,2.98-.35,4.48-.4,1.55-.05,3.1-.04,4.64.06,2.47.17,4.9.54,7.26,1.17,2.36.63,4.58,1.49,6.58,2.72,1.24.76,2.33,1.64,3.16,2.73.67.87,1.11,1.81,1.24,2.85.13,1.05-.09,2.05-.59,3.01-.46.87-1.11,1.63-1.9,2.32-1.88,1.64-4.18,2.74-6.67,3.58-1.97.67-4.02,1.11-6.11,1.41-1.32.19-2.65.32-3.99.36-.74.02-1.49,0-2.23,0-1.46.05-2.91-.04-4.36-.2-1.92-.2-3.82-.54-5.66-1.04-1.93-.52-3.78-1.19-5.49-2.11-1.36-.73-2.61-1.57-3.62-2.64-.92-.97-1.57-2.05-1.78-3.29-.2-1.17.03-2.28.61-3.35Z"/>
      <path d="m39.43,56.54c-.66-2.38-2.13-4.05-4.42-4.97-1.25-.5-2.55-.61-3.87-.37-1.61.29-2.98,1.04-4.07,2.26-1.51,1.68-2.1,3.66-1.81,5.89.16,1.23.63,2.36,1.39,3.34,1.46,1.89,3.4,2.83,5.78,2.89.86,0,1.69-.14,2.49-.44,1.94-.73,3.32-2.05,4.17-3.94.4-.9.58-1.86.58-2.84,0-.22,0-.45-.03-.67-.05-.39-.08-.78-.19-1.15Z"/>
    </g>
  </g>
</svg>