<?xml version="1.0" encoding="UTF-8"?>
<svg id="Layer_2" data-name="Layer 2" xmlns="http://www.w3.org/2000/svg" viewBox="0 0 107.4 86.44">
  <defs>
    <style>
      .cls-1 {
        fill: none;
      }
    </style>
  </defs>
  <g id="Layer_1-2" data-name="Layer 1">
    <g>
      <polygon class="cls-1" points="55.86 41.62 67.47 45 66.34 41.69 76.76 38.15 55.86 8.3 55.86 41.62"/>
      <path d="m84.68,40.74l10.42-3.54-1.61-4.73-11.79,4.01L60.35,6h8.57V0h-31.12v6h9.24l-20.5,29.28-6.89-8.58-3.9,3.13,7.8,9.71L0,73.19l4.1,2.87,22.72-32.45,6.89,8.58,3.9-3.13-7.8-9.71,21.06-30.07v30.9l-10.56-3.08-1.4,4.8,11.96,3.48v41.07h5v-39.61l10.56,3.08,1.25-4.3.28.81,11.8-4.01,23.56,33.64,4.1-2.87-22.72-32.45Zm-18.33.95l1.13,3.32-11.61-3.38V8.3l20.9,29.85-10.42,3.54Z"/>
    </g>
  </g>
</svg>