<?xml version="1.0" encoding="UTF-8"?>
<svg id="Layer_2" data-name="Layer 2" xmlns="http://www.w3.org/2000/svg" viewBox="0 0 90.27 90.56">
  <g id="Layer_1-2" data-name="Layer 1">
    <path d="m47.76,51.03c0,5.38,0,10.76,0,16.14,0,7.6,0,15.2,0,22.8,0,.62.13.59-.58.58-1.47-.01-2.93,0-4.4,0-.39,0-.4.01-.4-.39l-.02-43.52V5.31c-.24,0-.48,0-.71,0-13.38,0-26.77,0-40.15,0-.42,0-.84,0-1.26,0C.12,5.32,0,5.31,0,5.12,0,3.43,0,1.74,0,0c.17,0,.32,0,.46,0C9.71,0,18.96,0,28.2,0c20.33,0,40.65,0,60.98,0,.36,0,.73.04,1.09.07v5.16c-.16.03-.31.08-.47.08-13.21,0-26.43,0-39.64,0-.71,0-1.42.03-2.12.03-.21,0-.27.07-.26.28,0,7.98,0,15.96,0,23.94,0,5.02,0,10.04,0,15.06,0,.16-.01.31-.02.53M90.19.38s-.03,0-.04-.01v3.52s.03,0,.04,0V.38Z"/>
  </g>
</svg>