<?xml version="1.0" encoding="UTF-8"?>
<svg id="Layer_2" data-name="Layer 2" xmlns="http://www.w3.org/2000/svg" viewBox="0 0 41.28 41.35">
  <g id="Layer_1-2" data-name="Layer 1">
    <path d="m20.63,41.35c-6.78-.16-12.32-2.85-16.48-8.23C1.99,30.32.65,27.12.2,23.6c-.81-6.37.87-12.01,5.18-16.81C8.49,3.32,12.4,1.18,16.99.35c3.77-.68,7.48-.38,11.04,1.05,6.54,2.62,10.75,7.38,12.62,14.17.29,1.06.39,2.19.54,3.29.08.63.1,1.27.1,1.9-.01,2.81-.52,5.53-1.67,8.11-2.4,5.39-6.36,9.14-11.88,11.23-2.28.86-4.65,1.27-7.1,1.27Z"/>
  </g>
</svg>